<?xml version="1.0" encoding="utf-8"?>
<?xml-stylesheet type="text/xsl" href="rss1.xsl"?>
<rss version="2.0" xmlns:atom="http://www.w3.org/2005/Atom" xmlns:content="http://purl.org/rss/1.0/modules/content/" xmlns:dc="http://purl.org/dc/elements/1.1/" xmlns:media="http://search.yahoo.com/mrss/">
<channel>
 <title>Getty</title>
 <link>http://www.gettyimg.com/</link>
 <atom:link href="http://www.gettyimg.com/" rel="self" type="application/rss+xml" />

 
                <item>
                <title><![CDATA[【HD Live Performances】PACK - Lollapalooza Brazil 2024 @ 1080p/2160p WEB-DL DDP5.1/2.0 H264/H265]]></title>
                <link><![CDATA[https://sharemania.us/threads/lollapalooza-brazil-2024-1080p-2160p-web-dl-ddp5-1-2-0-h264-h265.240703/]]></link>
                <description><![CDATA[<article>
<blockquote class="messageText SelectQuoteContainer ugc baseHtml">
<div style="text-align: center"><br>
<a href="https://i.ibb.co/C6f2MZh/Lolla.png" target="_blank" class="externalLink" rel="nofollow"><img src="https://i.ibb.co/P9k3HKM/Loll1a.png" class="bbCodeImage LbImage" alt="[​IMG]" data-url="https://i.ibb.co/P9k3HKM/Loll1a.png"></a><br>
​</div>
<div class="ToggleTriggerAnchor bbCodeSpoilerContainer">
<button type="button" class="button bbCodeSpoilerButton ToggleTrigger Tooltip JsOnly" data-target="> .SpoilerTarget"><span>Spoiler: <span class="SpoilerTitle">Artists</span></span></button>
<div class="SpoilerTarget bbCodeSpoilerText">
<div class="bbCodeBlock bbCodeCode">
<div class="type">Code:</div>
<pre><b><span style="color: #8A2BE2">----------------------------- Shows In 4K / 2160p -----------------------------</span></b>
Arcade Fire
BK
Blink-182
Dayglow
Fletcher
Gilberto Gil
Greta Van Fleet
Hozier
Hungria
Jessie Reyez
Jungle
Limp Bizkit
Lourena
Luísa Sonza
Nothing But Thieves
Phoenix
Sam Smith
SZA
The Offspring
Thirty Seconds To Mars
Xamã

<b><span style="color: #8A2BE2">----------------------------- Shows In FHD / 1080p -----------------------------</span></b>
Above And Beyond
BaianaSystem
Céu
Diplo
Dom Dolla
Dombresky
Gabe
Groove Delight
J. Worra
Kevin O Chris
King Gizzard And The Wizard.Lizzard
Kittin
Livinho + MC Davi
Loud Luxury
Maneva
Manu Gavassi
Marcelo D2
Meduza
Mila Journee
Omar Apollo
Pierce The Veil
Rael
Ratier
Saha Stenzel Bsb Curol
The Blaze
The Driver Era
Timmy Trumpet
Titãs
TZ Da Coronel + Oruam
Vulgo FK + Dricka
Zhu</pre>
</div></div>
</div>
<div class="bbCodeBlock bbCodeVfcHH HiddenContent">
<div class="attribution type">Hidden Content:</div>
<blockquote>You must reply before you can see the hidden data contained here.</blockquote>
</div>
<div class="messageTextEndMarker">&nbsp;</div>
</blockquote>
</article>]]></description>
                <author><![CDATA[itunesboy]]></author>
                </item>

                
                <item>
                <title><![CDATA[【Cinema Center】SERIES - Marvel Rising: Initiation - Season 1 + Specials - 1080p Disney+ WEB-DL DDP5.1 H.264-LAZY]]></title>
                <link><![CDATA[https://sharemania.us/threads/marvel-rising-initiation-season-1-specials-1080p-disney-web-dl-ddp5-1-h-264-lazy.240702/]]></link>
                <description><![CDATA[<article>
<blockquote class="messageText SelectQuoteContainer ugc baseHtml">
Marvel Rising: Initiation:<img src="http:////cdn2.broadcasthe.net/tvdb/banners/graphical/5b7a749e88279.jpg" class="bbCodeImage LbImage" alt="[​IMG]" data-url="http:////cdn2.broadcasthe.net/tvdb/banners/graphical/5b7a749e88279.jpg" style=""><br>
<br>
<div class="bbCodeBlock bbCodeQuote">
<aside>
<blockquote class="quoteContainer"><div class="quote"><i><b>Synopsis:</b></i><br>
The story centers on teenage superhero Ghost-Spider (a version of Gwen Stacy who has acquired spider powers), who is on the run from the law after being framed for her friend’s murder. Ms. Marvel, Squirrel Girl, Quake, and Patriot are dispatched to bring her in, before they all find themselves teaming up to fight a threat no one had expected. This group of heroes is younger and more inclusive (in terms of both gender and ethnicity) than the mostly white male heroes who dominate the Marvel Cinematic Universe.</div><div class="quoteExpand">Click to expand...</div></blockquote>
</aside>
</div>
<div class="ToggleTriggerAnchor bbCodeSpoilerContainer">
<button type="button" class="button bbCodeSpoilerButton ToggleTrigger Tooltip JsOnly" data-target="> .SpoilerTarget"><span>Spoiler: <span class="SpoilerTitle">MediaInfo</span></span></button>
<div class="SpoilerTarget bbCodeSpoilerText">General<br>
Unique ID : 208346511559332222470241775843385845368 (0x9CBE141B5556E39231760D8AC0A0A678)<br>
Complete name : Marvel.Rising.Initiation.S01E01.Mission.Ghost.Hunter.1080p.DSNP.WEB-DL.DDP5.1.H.264-LAZY.mkv<br>
Format : Matroska<br>
Format version : Version 4<br>
File size : 219 MiB<br>
Duration : 3 min 30 s<br>
Overall bit rate mode : Variable<br>
Overall bit rate : 8 745 kb/s<br>
Encoded date : UTC 2024-03-24 18:22:08<br>
Writing application : mkvmerge v83.0 ('Circle Of Friends') 64-bit<br>
Writing library : libebml v1.4.5 + libmatroska v1.7.1<br>
<br>
Video<br>
ID : 1<br>
Format : AVC<br>
Format/Info : Advanced Video Codec<br>
Format profile : High@L4<br>
Format settings : CABAC / 4 Ref Frames<br>
Format settings, CABAC : Yes<br>
Format settings, Reference frames : 4 frames<br>
Codec ID : V_MPEG4/ISO/AVC<br>
Duration : 3 min 30 s<br>
Bit rate mode : Variable<br>
Bit rate : 8 484 kb/s<br>
Maximum bit rate : 12.7 Mb/s<br>
Width : 1 920 pixels<br>
Height : 1 080 pixels<br>
Display aspect ratio : 16:9<br>
Frame rate mode : Constant<br>
Frame rate : 23.976 (24000/1001) FPS<br>
Color space : YUV<br>
Chroma subsampling : 4:2:0<br>
Bit depth : 8 bits<br>
Scan type : Progressive<br>
Bits/(Pixel*Frame) : 0.171<br>
Stream size : 213 MiB (97%)<br>
Default : Yes<br>
Forced : No<br>
Color range : Limited<br>
Color primaries : BT.709<br>
Transfer characteristics : BT.709<br>
Matrix coefficients : BT.709<br>
<br>
Audio<br>
ID : 2<br>
Format : E-AC-3<br>
Format/Info : Enhanced AC-3<br>
Commercial name : Dolby Digital Plus<br>
Codec ID : A_EAC3<br>
Duration : 3 min 30 s<br>
Bit rate mode : Constant<br>
Bit rate : 256 kb/s<br>
Channel(s) : 6 channels<br>
Channel layout : L R C LFE Ls Rs<br>
Sampling rate : 48.0 kHz<br>
Frame rate : 31.250 FPS (1536 SPF)<br>
Compression mode : Lossy<br>
Stream size : 6.42 MiB (3%)<br>
Language : English<br>
Service kind : Complete Main<br>
Default : Yes<br>
Forced : No<br>
<br>
Text #1<br>
ID : 3<br>
Format : UTF-8<br>
Codec ID : S_TEXT/UTF8<br>
Codec ID/Info : UTF-8 Plain Text<br>
Duration : 3 min 21 s<br>
Bit rate : 98 b/s<br>
Count of elements : 64<br>
Stream size : 2.41 KiB (0%)<br>
Title : SDH<br>
Language : English<br>
Default : No<br>
Forced : No<br>
<br>
Text #2<br>
ID : 4<br>
Format : UTF-8<br>
Codec ID : S_TEXT/UTF8<br>
Codec ID/Info : UTF-8 Plain Text<br>
Duration : 3 min 14 s<br>
Bit rate : 87 b/s<br>
Count of elements : 52<br>
Stream size : 2.08 KiB (0%)<br>
Language : Czech<br>
Default : No<br>
Forced : No<br>
<br>
Text #3<br>
ID : 5<br>
Format : UTF-8<br>
Codec ID : S_TEXT/UTF8<br>
Codec ID/Info : UTF-8 Plain Text<br>
Duration : 3 min 12 s<br>
Bit rate : 84 b/s<br>
Count of elements : 40<br>
Stream size : 1.99 KiB (0%)<br>
Language : Danish<br>
Default : No<br>
Forced : No<br>
<br>
Text #4<br>
ID : 6<br>
Format : UTF-8<br>
Codec ID : S_TEXT/UTF8<br>
Codec ID/Info : UTF-8 Plain Text<br>
Duration : 3 min 14 s<br>
Bit rate : 170 b/s<br>
Count of elements : 53<br>
Stream size : 4.05 KiB (0%)<br>
Language : Greek<br>
Default : No<br>
Forced : No<br>
<br>
Text #5<br>
ID : 7<br>
Format : UTF-8<br>
Codec ID : S_TEXT/UTF8<br>
Codec ID/Info : UTF-8 Plain Text<br>
Duration : 3 min 12 s<br>
Bit rate : 89 b/s<br>
Count of elements : 41<br>
Stream size : 2.11 KiB (0%)<br>
Language : Finnish<br>
Default : No<br>
Forced : No<br>
<br>
Text #6<br>
ID : 8<br>
Format : UTF-8<br>
Codec ID : S_TEXT/UTF8<br>
Codec ID/Info : UTF-8 Plain Text<br>
Duration : 3 min 13 s<br>
Bit rate : 99 b/s<br>
Count of elements : 54<br>
Stream size : 2.34 KiB (0%)<br>
Language : Hungarian<br>
Default : No<br>
Forced : No<br>
<br>
Text #7<br>
ID : 9<br>
Format : UTF-8<br>
Codec ID : S_TEXT/UTF8<br>
Codec ID/Info : UTF-8 Plain Text<br>
Duration : 3 min 12 s<br>
Bit rate : 69 b/s<br>
Count of elements : 39<br>
Stream size : 1.63 KiB (0%)<br>
Language : Japanese<br>
Default : No<br>
Forced : No<br>
<br>
Text #8<br>
ID : 10<br>
Format : UTF-8<br>
Codec ID : S_TEXT/UTF8<br>
Codec ID/Info : UTF-8 Plain Text<br>
Duration : 3 min 12 s<br>
Bit rate : 83 b/s<br>
Count of elements : 40<br>
Stream size : 1.96 KiB (0%)<br>
Language : Norwegian<br>
Default : No<br>
Forced : No<br>
<br>
Text #9<br>
ID : 11<br>
Format : UTF-8<br>
Codec ID : S_TEXT/UTF8<br>
Codec ID/Info : UTF-8 Plain Text<br>
Duration : 3 min 14 s<br>
Bit rate : 91 b/s<br>
Count of elements : 53<br>
Stream size : 2.16 KiB (0%)<br>
Language : Polish<br>
Default : No<br>
Forced : No<br>
<br>
Text #10<br>
ID : 12<br>
Format : UTF-8<br>
Codec ID : S_TEXT/UTF8<br>
Codec ID/Info : UTF-8 Plain Text<br>
Duration : 3 min 12 s<br>
Bit rate : 92 b/s<br>
Count of elements : 52<br>
Stream size : 2.17 KiB (0%)<br>
Title : European<br>
Language : Portuguese<br>
Default : No<br>
Forced : No<br>
<br>
Text #11<br>
ID : 13<br>
Format : UTF-8<br>
Codec ID : S_TEXT/UTF8<br>
Codec ID/Info : UTF-8 Plain Text<br>
Duration : 3 min 12 s<br>
Bit rate : 103 b/s<br>
Count of elements : 54<br>
Stream size : 2.42 KiB (0%)<br>
Language : Romanian<br>
Default : No<br>
Forced : No<br>
<br>
Text #12<br>
ID : 14<br>
Format : UTF-8<br>
Codec ID : S_TEXT/UTF8<br>
Codec ID/Info : UTF-8 Plain Text<br>
Duration : 3 min 12 s<br>
Bit rate : 87 b/s<br>
Count of elements : 40<br>
Stream size : 2.05 KiB (0%)<br>
Language : Swedish<br>
Default : No<br>
Forced : No<br>
<br>
Text #13<br>
ID : 15<br>
Format : UTF-8<br>
Codec ID : S_TEXT/UTF8<br>
Codec ID/Info : UTF-8 Plain Text<br>
Duration : 3 min 14 s<br>
Bit rate : 98 b/s<br>
Count of elements : 54<br>
Stream size : 2.33 KiB (0%)<br>
Language : Turkish<br>
Default : No<br>
Forced : No<br>
<br>
Text #14<br>
ID : 16<br>
Format : UTF-8<br>
Codec ID : S_TEXT/UTF8<br>
Codec ID/Info : UTF-8 Plain Text<br>
Duration : 3 min 12 s<br>
Bit rate : 76 b/s<br>
Count of elements : 51<br>
Stream size : 1.80 KiB (0%)<br>
Title : Traditional, Hong Kong<br>
Language : Chinese<br>
Default : No<br>
Forced : No<br>
<br>
Text #15<br>
ID : 17<br>
Format : UTF-8<br>
Codec ID : S_TEXT/UTF8<br>
Codec ID/Info : UTF-8 Plain Text<br>
Duration : 3 min 12 s<br>
Bit rate : 75 b/s<br>
Count of elements : 51<br>
Stream size : 1.78 KiB (0%)<br>
Title : Traditional<br>
Language : Chinese<br>
Default : No<br>
Forced : No<br>
<br>
Menu<br>
00:00:00.000 : en:Intro<br>
00:00:02.002 : en:Scene 1<br>
00:03:30.210 : en:Credits</div>
</div><br>
Screenshots:<br>
<img src="https://ptpimg.me/23822h.jpg" class="bbCodeImage LbImage" alt="[​IMG]" data-url="https://ptpimg.me/23822h.jpg" style=""><br>
<br>
<div class="bbCodeBlock bbCodeVfcHH HiddenContent">
<div class="attribution type">Hidden Content:</div>
<blockquote>You must either reply or click 'Like' to see the hidden information contained here.</blockquote>
</div>
<div class="messageTextEndMarker">&nbsp;</div>
</blockquote>
</article>]]></description>
                <author><![CDATA[LazyRips]]></author>
                </item>

                
                <item>
                <title><![CDATA[【HD Live Performances】WEB-DL - Greta Van Fleet - Lollapalooza Brazil 2024 2160p WEB-DL DDP5.1 H.265]]></title>
                <link><![CDATA[https://sharemania.us/threads/greta-van-fleet-lollapalooza-brazil-2024-2160p-web-dl-ddp5-1-h-265.240701/]]></link>
                <description><![CDATA[<article>
<blockquote class="messageText SelectQuoteContainer ugc baseHtml">
<div style="text-align: center"><br>
<a href="https://ibb.co/0qt9z7t" target="_blank" class="externalLink" rel="nofollow"><img src="https://i.ibb.co/zsJ2tMJ/lollapalooza-1-76411.png" class="bbCodeImage LbImage" alt="[​IMG]" data-url="https://i.ibb.co/zsJ2tMJ/lollapalooza-1-76411.png"></a><br>
<a href="https://ibb.co/94xHcns" target="_blank" class="externalLink" rel="nofollow"><img src="https://i.ibb.co/94xHcns/Lollapalooza-Brasil-2024-Greta-Van-Fleet-2160p-GLBO-WEB-DL-DDP5-1-Atmos-H-265-JL92-mkv-20240325-0012.png" class="bbCodeImage LbImage" alt="[​IMG]" data-url="https://i.ibb.co/94xHcns/Lollapalooza-Brasil-2024-Greta-Van-Fleet-2160p-GLBO-WEB-DL-DDP5-1-Atmos-H-265-JL92-mkv-20240325-0012.png"></a> <a href="https://ibb.co/3vzpKtf" target="_blank" class="externalLink" rel="nofollow"><img src="https://i.ibb.co/3vzpKtf/Lollapalooza-Brasil-2024-Greta-Van-Fleet-2160p-GLBO-WEB-DL-DDP5-1-Atmos-H-265-JL92-mkv-20240325-0012.png" class="bbCodeImage LbImage" alt="[​IMG]" data-url="https://i.ibb.co/3vzpKtf/Lollapalooza-Brasil-2024-Greta-Van-Fleet-2160p-GLBO-WEB-DL-DDP5-1-Atmos-H-265-JL92-mkv-20240325-0012.png"></a> <a href="https://ibb.co/7Xms52B" target="_blank" class="externalLink" rel="nofollow"><img src="https://i.ibb.co/7Xms52B/Lollapalooza-Brasil-2024-Greta-Van-Fleet-2160p-GLBO-WEB-DL-DDP5-1-Atmos-H-265-JL92-mkv-20240325-0012.png" class="bbCodeImage LbImage" alt="[​IMG]" data-url="https://i.ibb.co/7Xms52B/Lollapalooza-Brasil-2024-Greta-Van-Fleet-2160p-GLBO-WEB-DL-DDP5-1-Atmos-H-265-JL92-mkv-20240325-0012.png"></a><br>
​</div>
<div class="ToggleTriggerAnchor bbCodeSpoilerContainer">
<button type="button" class="button bbCodeSpoilerButton ToggleTrigger Tooltip JsOnly" data-target="> .SpoilerTarget"><span>Spoiler: <span class="SpoilerTitle">MediaInfo</span></span></button>
<div class="SpoilerTarget bbCodeSpoilerText">
<div class="bbCodeBlock bbCodeCode">
<div class="type">Code:</div>
<pre>General
Format                                   : Matroska
Format version                           : Version 4
File size                                : 8.92 GiB
Duration                                 : 1 h 9 min
Overall bit rate                         : 18.5 Mb/s
Frame rate                               : 30.000 FPS
Writing application                      : Lavf58.76.100
Writing library                          : Lavf58.76.100
ErrorDetectionType                       : Per level 1

Video
ID                                       : 1
Format                                   : HEVC
Format/Info                              : High Efficiency Video Coding
Format profile                           : Main 10@L5.1@High
Codec ID                                 : V_MPEGH/ISO/HEVC
Duration                                 : 1 h 9 min
Bit rate                                 : 17.6 Mb/s
Width                                    : 3 840 pixels
Height                                   : 2 160 pixels
Display aspect ratio                     : 16:9
Frame rate mode                          : Constant
Frame rate                               : 30.000 FPS
Standard                                 : NTSC
Color space                              : YUV
Chroma subsampling                       : 4:2:0
Bit depth                                : 10 bits
Bits/(Pixel*Frame)                       : 0.071
Time code of first frame                 : 01:49:36:02
Stream size                              : 8.53 GiB (96%)
Default                                  : Yes
Forced                                   : No
Color range                              : Limited
Color primaries                          : BT.709
Transfer characteristics                 : BT.709
Matrix coefficients                      : BT.709

Audio
ID                                       : 2
Format                                   : E-AC-3 JOC
Format/Info                              : Enhanced AC-3 with Joint Object Coding
Commercial name                          : Dolby Digital Plus with Dolby Atmos
Codec ID                                 : A_EAC3
Duration                                 : 1 h 9 min
Bit rate mode                            : Constant
Bit rate                                 : 448 kb/s
Channel(s)                               : 6 channels
Channel layout                           : L R C LFE Ls Rs
Sampling rate                            : 48.0 kHz
Frame rate                               : 31.250 FPS (1536 SPF)
Compression mode                         : Lossy
Delay relative to video                  : 32 ms
Stream size                              : 222 MiB (2%)
Language                                 : English
Service kind                             : Complete Main
Default                                  : Yes
Forced                                   : No
Complexity index                         : 12
Number of dynamic objects                : 0
Bed channel count                        : 12 channels
Bed channel configuration                : L R C LFE Ls Rs Lb Rb Tfl Tfr Tbl Tbr
</pre>
</div></div>
</div>
<div class="bbCodeBlock bbCodeVfcHH HiddenContent">
<div class="attribution type">Hidden Content:</div>
<blockquote>You must reply before you can see the hidden data contained here.</blockquote>
</div>
<div class="messageTextEndMarker">&nbsp;</div>
</blockquote>
</article>]]></description>
                <author><![CDATA[itunesboy]]></author>
                </item>

                </channel></rss>